<svg id="SvgjsSvg1006" width="1529.25" height="748" xmlns="http://www.w3.org/2000/svg" version="1.1" xmlns:xlink="http://www.w3.org/1999/xlink" xmlns:svgjs="http://svgjs.com/svgjs"><defs id="SvgjsDefs1007"><marker id="SvgjsMarker1094" markerWidth="14" markerHeight="10" refX="10" refY="5" viewBox="0 0 14 10" orient="auto" markerUnits="userSpaceOnUse" stroke-dasharray="0,0"><path id="SvgjsPath1095" d="M0,0 L14,5 L0,10 L0,0" fill="#323232" stroke="#323232" stroke-width="1"></path></marker><marker id="SvgjsMarker1098" markerWidth="14" markerHeight="10" refX="10" refY="5" viewBox="0 0 14 10" orient="auto" markerUnits="userSpaceOnUse" stroke-dasharray="0,0"><path id="SvgjsPath1099" d="M0,0 L14,5 L0,10 L0,0" fill="#323232" stroke="#323232" stroke-width="1"></path></marker><marker id="SvgjsMarker1120" markerWidth="14" markerHeight="10" refX="10" refY="5" viewBox="0 0 14 10" orient="auto" markerUnits="userSpaceOnUse" stroke-dasharray="0,0"><path id="SvgjsPath1121" d="M0,0 L14,5 L0,10 L0,0" fill="#323232" stroke="#323232" stroke-width="1"></path></marker><marker id="SvgjsMarker1142" markerWidth="14" markerHeight="10" refX="10" refY="5" viewBox="0 0 14 10" orient="auto" markerUnits="userSpaceOnUse" stroke-dasharray="0,0"><path id="SvgjsPath1143" d="M0,0 L14,5 L0,10 L0,0" fill="#323232" stroke="#323232" stroke-width="1"></path></marker><marker id="SvgjsMarker1146" markerWidth="14" markerHeight="10" refX="10" refY="5" viewBox="0 0 14 10" orient="auto" markerUnits="userSpaceOnUse" stroke-dasharray="0,0"><path id="SvgjsPath1147" d="M0,0 L14,5 L0,10 L0,0" fill="#323232" stroke="#323232" stroke-width="1"></path></marker><marker id="SvgjsMarker1158" markerWidth="14" markerHeight="10" refX="10" refY="5" viewBox="0 0 14 10" orient="auto" markerUnits="userSpaceOnUse" stroke-dasharray="0,0"><path id="SvgjsPath1159" d="M0,0 L14,5 L0,10 L0,0" fill="#323232" stroke="#323232" stroke-width="1"></path></marker><marker id="SvgjsMarker1162" markerWidth="14" markerHeight="10" refX="10" refY="5" viewBox="0 0 14 10" orient="auto" markerUnits="userSpaceOnUse" stroke-dasharray="0,0"><path id="SvgjsPath1163" d="M0,0 L14,5 L0,10 L0,0" fill="#323232" stroke="#323232" stroke-width="1"></path></marker><marker id="SvgjsMarker1166" markerWidth="14" markerHeight="10" refX="10" refY="5" viewBox="0 0 14 10" orient="auto" markerUnits="userSpaceOnUse" stroke-dasharray="0,0"><path id="SvgjsPath1167" d="M0,0 L14,5 L0,10 L0,0" fill="#323232" stroke="#323232" stroke-width="1"></path></marker></defs><g id="SvgjsG1008" transform="translate(26.25,596)"><path id="SvgjsPath1009" d="M 0 4Q 0 0 4 0L 1474 0Q 1478 0 1478 4L 1478 60Q 1478 64 1474 64L 4 64Q 0 64 0 60Z" stroke="rgba(50,50,50,1)" stroke-width="2" fill-opacity="1" fill="#ffffff"></path><g id="SvgjsG1010"><text id="SvgjsText1011" font-family="微软雅黑" text-anchor="middle" font-size="13px" width="1458px" fill="#323232" font-weight="400" align="middle" lineHeight="125%" anchor="middle" family="微软雅黑" size="13px" weight="400" font-style="" opacity="1" y="21.875" transform="rotate(0)"><tspan id="SvgjsTspan1012" dy="16" x="739"><tspan id="SvgjsTspan1013" style="text-decoration:;">硬件驱动</tspan></tspan></text></g></g><g id="SvgjsG1014" transform="translate(26.25,538)"><path id="SvgjsPath1015" d="M 0 4Q 0 0 4 0L 384 0Q 388 0 388 4L 388 31Q 388 35 384 35L 4 35Q 0 35 0 31Z" stroke="rgba(50,50,50,1)" stroke-width="2" fill-opacity="1" fill="#ffffff"></path><g id="SvgjsG1016"><text id="SvgjsText1017" font-family="微软雅黑" text-anchor="middle" font-size="13px" width="368px" fill="#323232" font-weight="400" align="middle" lineHeight="125%" anchor="middle" family="微软雅黑" size="13px" weight="400" font-style="" opacity="1" y="7.375" transform="rotate(0)"><tspan id="SvgjsTspan1018" dy="16" x="194"><tspan id="SvgjsTspan1019" style="text-decoration:;">block 物理内存管理器</tspan></tspan></text></g></g><g id="SvgjsG1020" transform="translate(26.25,489)"><path id="SvgjsPath1021" d="M 0 4Q 0 0 4 0L 384 0Q 388 0 388 4L 388 31Q 388 35 384 35L 4 35Q 0 35 0 31Z" stroke="rgba(50,50,50,1)" stroke-width="2" fill-opacity="1" fill="#ffffff"></path><g id="SvgjsG1022"><text id="SvgjsText1023" font-family="微软雅黑" text-anchor="middle" font-size="13px" width="368px" fill="#323232" font-weight="400" align="middle" lineHeight="125%" anchor="middle" family="微软雅黑" size="13px" weight="400" font-style="" opacity="1" y="7.375" transform="rotate(0)"><tspan id="SvgjsTspan1024" dy="16" x="194"><tspan id="SvgjsTspan1025" style="text-decoration:;">buddy 物理内存管理器</tspan></tspan></text></g></g><g id="SvgjsG1026" transform="translate(26.25,451)"><path id="SvgjsPath1027" d="M 0 4Q 0 0 4 0L 384 0Q 388 0 388 4L 388 24Q 388 28 384 28L 4 28Q 0 28 0 24Z" stroke="rgba(50,50,50,1)" stroke-width="2" fill-opacity="1" fill="#ffffff"></path><g id="SvgjsG1028"><text id="SvgjsText1029" font-family="微软雅黑" text-anchor="middle" font-size="13px" width="368px" fill="#323232" font-weight="400" align="middle" lineHeight="125%" anchor="middle" family="微软雅黑" size="13px" weight="400" font-style="" opacity="1" y="3.875" transform="rotate(0)"><tspan id="SvgjsTspan1030" dy="16" x="194"><tspan id="SvgjsTspan1031" style="text-decoration:;">slab 与 slabcache</tspan></tspan></text></g></g><g id="SvgjsG1032" transform="translate(200.25,278)"><path id="SvgjsPath1033" d="M 0 4Q 0 0 4 0L 210 0Q 214 0 214 4L 214 153Q 214 157 210 157L 4 157Q 0 157 0 153Z" stroke="rgba(50,50,50,1)" stroke-width="2" fill-opacity="1" fill="#ffffff"></path><g id="SvgjsG1034"><text id="SvgjsText1035" font-family="微软雅黑" text-anchor="middle" font-size="13px" width="194px" fill="#323232" font-weight="400" align="middle" lineHeight="125%" anchor="middle" family="微软雅黑" size="13px" weight="400" font-style="" opacity="1" y="68.375" transform="rotate(0)"><tspan id="SvgjsTspan1036" dy="16" x="107"><tspan id="SvgjsTspan1037" style="text-decoration:;">kmalloc(内核虚拟内存分配)</tspan></tspan></text></g></g><g id="SvgjsG1038" transform="translate(26.25,278)"><path id="SvgjsPath1039" d="M 0 0L 168 0L 168 157L 0 157Z" stroke="rgba(50,50,50,1)" stroke-width="2" fill-opacity="1" fill="#ffffff"></path><g id="SvgjsG1040"><text id="SvgjsText1041" font-family="微软雅黑" text-anchor="middle" font-size="13px" width="148px" fill="#323232" font-weight="400" align="middle" lineHeight="125%" anchor="middle" family="微软雅黑" size="13px" weight="400" font-style="" opacity="1" y="68.375" transform="rotate(0)"><tspan id="SvgjsTspan1042" dy="16" x="84"><tspan id="SvgjsTspan1043" style="text-decoration:;">uvm(管理用户虚拟内存)</tspan></tspan></text></g></g><g id="SvgjsG1044" transform="translate(150.25,671)"><path id="SvgjsPath1045" d="M 0 0L 120 0L 120 40L 0 40Z" stroke="none" fill="none"></path><g id="SvgjsG1046"><text id="SvgjsText1047" font-family="微软雅黑" text-anchor="middle" font-size="13px" width="120px" fill="#323232" font-weight="700" align="middle" lineHeight="125%" anchor="middle" family="微软雅黑" size="13px" weight="700" font-style="" opacity="1" y="9.875" transform="rotate(0)"><tspan id="SvgjsTspan1048" dy="16" x="60"><tspan id="SvgjsTspan1049" style="text-decoration:;">内存管理模块</tspan></tspan></text></g></g><g id="SvgjsG1050" transform="translate(472.75,416)"><path id="SvgjsPath1051" d="M 0 0L 448 0L 448 73L 0 73Z" stroke="rgba(50,50,50,1)" stroke-width="2" fill-opacity="1" fill="#ffffff"></path><g id="SvgjsG1052"><text id="SvgjsText1053" font-family="微软雅黑" text-anchor="middle" font-size="13px" width="428px" fill="#323232" font-weight="400" align="middle" lineHeight="125%" anchor="middle" family="微软雅黑" size="13px" weight="400" font-style="" opacity="1" y="26.375" transform="rotate(0)"><tspan id="SvgjsTspan1054" dy="16" x="224"><tspan id="SvgjsTspan1055" style="text-decoration:;">kernel_clone</tspan></tspan></text></g></g><g id="SvgjsG1056" transform="translate(674.25,683)"><path id="SvgjsPath1057" d="M 0 0L 120 0L 120 40L 0 40Z" stroke="none" fill="none"></path><g id="SvgjsG1058"><text id="SvgjsText1059" font-family="微软雅黑" text-anchor="middle" font-size="13px" width="120px" fill="#323232" font-weight="700" align="middle" lineHeight="125%" anchor="middle" family="微软雅黑" size="13px" weight="700" font-style="" opacity="1" y="9.875" transform="rotate(0)"><tspan id="SvgjsTspan1060" dy="16" x="60"><tspan id="SvgjsTspan1061" style="text-decoration:;">任务调度模块</tspan></tspan></text></g></g><g id="SvgjsG1062" transform="translate(659.25,277)"><path id="SvgjsPath1063" d="M 0 0L 264 0L 264 125L 0 125Z" stroke="rgba(50,50,50,1)" stroke-width="2" fill-opacity="1" fill="#ffffff"></path><g id="SvgjsG1064"><text id="SvgjsText1065" font-family="微软雅黑" text-anchor="middle" font-size="13px" width="244px" fill="#323232" font-weight="400" align="middle" lineHeight="125%" anchor="middle" family="微软雅黑" size="13px" weight="400" font-style="" opacity="1" y="52.375" transform="rotate(0)"><tspan id="SvgjsTspan1066" dy="16" x="132"><tspan id="SvgjsTspan1067" style="text-decoration:;">kthread_create 创建内核线程</tspan></tspan></text></g></g><g id="SvgjsG1068" transform="translate(472.75,509)"><path id="SvgjsPath1069" d="M 0 0L 448 0L 448 67L 0 67Z" stroke="rgba(50,50,50,1)" stroke-width="2" fill-opacity="1" fill="#ffffff"></path><g id="SvgjsG1070"><text id="SvgjsText1071" font-family="微软雅黑" text-anchor="middle" font-size="13px" width="428px" fill="#323232" font-weight="400" align="middle" lineHeight="125%" anchor="middle" family="微软雅黑" size="13px" weight="400" font-style="" opacity="1" y="23.375" transform="rotate(0)"><tspan id="SvgjsTspan1072" dy="16" x="224"><tspan id="SvgjsTspan1073" style="text-decoration:;">任务调度器(多级反馈队列)</tspan></tspan></text></g></g><g id="SvgjsG1074" transform="translate(472.75,277)"><path id="SvgjsPath1075" d="M 0 0L 166.5 0L 166.5 125L 0 125Z" stroke="rgba(50,50,50,1)" stroke-width="2" fill-opacity="1" fill="#ffffff"></path><g id="SvgjsG1076"><text id="SvgjsText1077" font-family="微软雅黑" text-anchor="middle" font-size="13px" width="147px" fill="#323232" font-weight="400" align="middle" lineHeight="125%" anchor="middle" family="微软雅黑" size="13px" weight="400" font-style="" opacity="1" y="52.375" transform="rotate(0)"><tspan id="SvgjsTspan1078" dy="16" x="83.5"><tspan id="SvgjsTspan1079" style="text-decoration:;">fork 创建 用户空间任务</tspan></tspan></text></g></g><g id="SvgjsG1080" transform="translate(25,25)"><path id="SvgjsPath1081" d="M 0 0L 1479.25 0L 1479.25 111L 0 111Z" stroke="rgba(50,50,50,1)" stroke-width="2" fill-opacity="1" fill="#ffffff"></path><g id="SvgjsG1082"><text id="SvgjsText1083" font-family="微软雅黑" text-anchor="middle" font-size="13px" width="1460px" fill="#323232" font-weight="400" align="middle" lineHeight="125%" anchor="middle" family="微软雅黑" size="13px" weight="400" font-style="" opacity="1" y="45.375" transform="rotate(0)"><tspan id="SvgjsTspan1084" dy="16" x="740"><tspan id="SvgjsTspan1085" style="text-decoration:;">用户空间(shell)</tspan></tspan></text></g></g><g id="SvgjsG1086" transform="translate(26.25,181)"><path id="SvgjsPath1087" d="M 0 0L 1478 0L 1478 49L 0 49Z" stroke="rgba(50,50,50,1)" stroke-width="2" fill-opacity="1" fill="#ffffff"></path><g id="SvgjsG1088"><text id="SvgjsText1089" font-family="微软雅黑" text-anchor="middle" font-size="13px" width="1458px" fill="#323232" font-weight="400" align="middle" lineHeight="125%" anchor="middle" family="微软雅黑" size="13px" weight="400" font-style="" opacity="1" y="14.375" transform="rotate(0)"><tspan id="SvgjsTspan1090" dy="16" x="739"><tspan id="SvgjsTspan1091" style="text-decoration:;">中断返回与系统调用</tspan></tspan></text></g></g><g id="SvgjsG1092"><path id="SvgjsPath1093" d="M556 276L556 257.5L556 257.5L556 238" stroke="#323232" stroke-width="2" fill="none" marker-end="url(#SvgjsMarker1094)"></path></g><g id="SvgjsG1096"><path id="SvgjsPath1097" d="M110.25 277L110.25 261.5L110.25 261.5L110.25 245" stroke="#323232" stroke-width="2" fill="none" marker-end="url(#SvgjsMarker1098)"></path></g><g id="SvgjsG1100" transform="translate(1186.25,683)"><path id="SvgjsPath1101" d="M 0 0L 120 0L 120 40L 0 40Z" stroke="none" fill="none"></path><g id="SvgjsG1102"><text id="SvgjsText1103" font-family="微软雅黑" text-anchor="middle" font-size="13px" width="120px" fill="#323232" font-weight="400" align="middle" lineHeight="125%" anchor="middle" family="微软雅黑" size="13px" weight="400" font-style="" opacity="1" y="9.875" transform="rotate(0)"><tspan id="SvgjsTspan1104" dy="16" x="60"><tspan id="SvgjsTspan1105" style="text-decoration:;font-weight: bold;">文件模块</tspan></tspan></text></g></g><g id="SvgjsG1106" transform="translate(975.25,459)"><path id="SvgjsPath1107" d="M 0 0L 529 0L 529 73L 0 73Z" stroke="rgba(50,50,50,1)" stroke-width="2" fill-opacity="1" fill="#ffffff"></path><g id="SvgjsG1108"><text id="SvgjsText1109" font-family="微软雅黑" text-anchor="middle" font-size="13px" width="509px" fill="#323232" font-weight="400" align="middle" lineHeight="125%" anchor="middle" family="微软雅黑" size="13px" weight="400" font-style="" opacity="1" y="26.375" transform="rotate(0)"><tspan id="SvgjsTspan1110" dy="16" x="264.5"><tspan id="SvgjsTspan1111" style="text-decoration:;">页缓存(原始数据与文件块)</tspan></tspan></text></g></g><g id="SvgjsG1112" transform="translate(1186.25,277)"><path id="SvgjsPath1113" d="M 0 0L 318 0L 318 72L 0 72Z" stroke="rgba(50,50,50,1)" stroke-width="2" fill-opacity="1" fill="#ffffff"></path><g id="SvgjsG1114"><text id="SvgjsText1115" font-family="微软雅黑" text-anchor="middle" font-size="13px" width="298px" fill="#323232" font-weight="400" align="middle" lineHeight="125%" anchor="middle" family="微软雅黑" size="13px" weight="400" font-style="" opacity="1" y="25.875" transform="rotate(0)"><tspan id="SvgjsTspan1116" dy="16" x="159"><tspan id="SvgjsTspan1117" style="text-decoration:;">vfs inode 缓存</tspan></tspan></text></g></g><g id="SvgjsG1118"><path id="SvgjsPath1119" d="M1239.75 533L1239.75 559.5L1239.75 559.5L1239.75 587" stroke="#323232" stroke-width="2" fill="none" marker-end="url(#SvgjsMarker1120)"></path></g><g id="SvgjsG1122" transform="translate(1234.25,543)"><path id="SvgjsPath1123" d="M 0 0L 120 0L 120 40L 0 40Z" stroke="none" fill="none"></path><g id="SvgjsG1124"><text id="SvgjsText1125" font-family="微软雅黑" text-anchor="middle" font-size="13px" width="120px" fill="#323232" font-weight="400" align="middle" lineHeight="125%" anchor="middle" family="微软雅黑" size="13px" weight="400" font-style="" opacity="1" y="9.875" transform="rotate(0)"><tspan id="SvgjsTspan1126" dy="16" x="60"><tspan id="SvgjsTspan1127" style="text-decoration:;">回写线程回写</tspan></tspan></text></g></g><g id="SvgjsG1128" transform="translate(975.25,278)"><path id="SvgjsPath1129" d="M 0 0L 176 0L 176 70L 0 70Z" stroke="rgba(50,50,50,1)" stroke-width="2" fill-opacity="1" fill="#ffffff"></path><g id="SvgjsG1130"><text id="SvgjsText1131" font-family="微软雅黑" text-anchor="middle" font-size="13px" width="156px" fill="#323232" font-weight="400" align="middle" lineHeight="125%" anchor="middle" family="微软雅黑" size="13px" weight="400" font-style="" opacity="1" y="24.875" transform="rotate(0)"><tspan id="SvgjsTspan1132" dy="16" x="88"><tspan id="SvgjsTspan1133" style="text-decoration:;">vfs dir 缓存</tspan></tspan></text></g></g><g id="SvgjsG1134" transform="translate(978.25,369)"><path id="SvgjsPath1135" d="M 0 0L 298 0L 298 57L 0 57Z" stroke="rgba(50,50,50,1)" stroke-width="2" fill-opacity="1" fill="#ffffff"></path><g id="SvgjsG1136"><text id="SvgjsText1137" font-family="微软雅黑" text-anchor="middle" font-size="13px" width="278px" fill="#323232" font-weight="400" align="middle" lineHeight="125%" anchor="middle" family="微软雅黑" size="13px" weight="400" font-style="" opacity="1" y="18.375" transform="rotate(0)"><tspan id="SvgjsTspan1138" dy="16" x="149"><tspan id="SvgjsTspan1139" style="text-decoration:;">ext2 </tspan></tspan></text></g></g><g id="SvgjsG1140"><path id="SvgjsPath1141" d="M791.25 276L791.25 259.5L791.25 259.5L791.25 242" stroke="#323232" stroke-width="2" fill="none" marker-end="url(#SvgjsMarker1142)"></path></g><g id="SvgjsG1144"><path id="SvgjsPath1145" d="M1063.25 277L1063.25 259L1063.25 259L1063.25 240" stroke="#323232" stroke-width="2" fill="none" marker-end="url(#SvgjsMarker1146)"></path></g><g id="SvgjsG1148" transform="translate(1384.25,387)"><path id="SvgjsPath1149" d="M 0 0L 61 0L 61 44L 0 44Z" stroke="none" fill="none"></path><g id="SvgjsG1150"><text id="SvgjsText1151" font-family="微软雅黑" text-anchor="middle" font-size="13px" width="61px" fill="#323232" font-weight="400" align="middle" lineHeight="125%" anchor="middle" family="微软雅黑" size="13px" weight="400" font-style="" opacity="1" y="3.875" transform="rotate(0)"><tspan id="SvgjsTspan1152" dy="16" x="30.5"><tspan id="SvgjsTspan1153" style="text-decoration:;">回写脏数</tspan></tspan><tspan id="SvgjsTspan1154" dy="16" x="30.5"><tspan id="SvgjsTspan1155" style="text-decoration:;">据</tspan></tspan></text></g></g><g id="SvgjsG1156"><path id="SvgjsPath1157" d="M764.625 137L764.625 158.5L764 158.5L764 177.4" stroke="#323232" stroke-width="2" fill="none" marker-end="url(#SvgjsMarker1158)"></path></g><g id="SvgjsG1160"><path id="SvgjsPath1161" d="M1345.25 276L1345.25 253.5L1345.25 253.5L1345.25 233.6" stroke="#323232" stroke-width="2" fill="none" marker-end="url(#SvgjsMarker1162)"></path></g><g id="SvgjsG1164"><path id="SvgjsPath1165" d="M1345.25 350L1345.25 404L1345.25 404L1345.25 455.4" stroke="#323232" stroke-width="2" fill="none" marker-end="url(#SvgjsMarker1166)"></path></g></svg>