<svg id="SvgjsSvg1006" width="624" height="555" xmlns="http://www.w3.org/2000/svg" version="1.1" xmlns:xlink="http://www.w3.org/1999/xlink" xmlns:svgjs="http://svgjs.com/svgjs"><defs id="SvgjsDefs1007"><marker id="SvgjsMarker1022" markerWidth="16" markerHeight="12" refX="16" refY="6" viewBox="0 0 16 12" orient="auto" markerUnits="userSpaceOnUse" stroke-dasharray="0,0"><path id="SvgjsPath1023" d="M0,2 L14,6 L0,11 L0,2" fill="#323232" stroke="#323232" stroke-width="2"></path></marker><marker id="SvgjsMarker1044" markerWidth="16" markerHeight="12" refX="16" refY="6" viewBox="0 0 16 12" orient="auto" markerUnits="userSpaceOnUse" stroke-dasharray="0,0"><path id="SvgjsPath1045" d="M0,2 L14,6 L0,11 L0,2" fill="#323232" stroke="#323232" stroke-width="2"></path></marker><marker id="SvgjsMarker1048" markerWidth="16" markerHeight="12" refX="16" refY="6" viewBox="0 0 16 12" orient="auto" markerUnits="userSpaceOnUse" stroke-dasharray="0,0"><path id="SvgjsPath1049" d="M0,2 L14,6 L0,11 L0,2" fill="#323232" stroke="#323232" stroke-width="2"></path></marker></defs><g id="SvgjsG1008" transform="translate(25,492)"><path id="SvgjsPath1009" d="M 0 0L 127 0L 127 38L 0 38Z" stroke="rgba(50,50,50,1)" stroke-width="2" fill-opacity="1" fill="#ffffff"></path><g id="SvgjsG1010"><text id="SvgjsText1011" font-family="微软雅黑" text-anchor="middle" font-size="13px" width="107px" fill="#323232" font-weight="400" align="middle" lineHeight="125%" anchor="middle" family="微软雅黑" size="13px" weight="400" font-style="" opacity="1" y="9.375" transform="rotate(0)"><tspan id="SvgjsTspan1012" dy="16" x="63.5"><tspan id="SvgjsTspan1013" style="text-decoration:;">4K</tspan></tspan></text></g></g><g id="SvgjsG1014" transform="translate(164,492)"><path id="SvgjsPath1015" d="M 0 0L 127 0L 127 38L 0 38Z" stroke="rgba(50,50,50,1)" stroke-width="2" fill-opacity="1" fill="#ffffff"></path><g id="SvgjsG1016"><text id="SvgjsText1017" font-family="微软雅黑" text-anchor="middle" font-size="13px" width="107px" fill="#323232" font-weight="400" align="middle" lineHeight="125%" anchor="middle" family="微软雅黑" size="13px" weight="400" font-style="" opacity="1" y="9.375" transform="rotate(0)"><tspan id="SvgjsTspan1018" dy="16" x="63.5"><tspan id="SvgjsTspan1019" style="text-decoration:;">4K</tspan></tspan></text></g></g><g id="SvgjsG1020"><path id="SvgjsPath1021" d="M152 400L152 437.5L152 437.5L152 475" stroke="#323232" stroke-width="2" fill="none" marker-end="url(#SvgjsMarker1022)"></path></g><g id="SvgjsG1024" transform="translate(25,323)"><path id="SvgjsPath1025" d="M 0 0L 266 0L 266 52L 0 52Z" stroke="rgba(50,50,50,1)" stroke-width="2" fill-opacity="1" fill="#ffffff"></path><g id="SvgjsG1026"><text id="SvgjsText1027" font-family="微软雅黑" text-anchor="middle" font-size="13px" width="246px" fill="#323232" font-weight="400" align="middle" lineHeight="125%" anchor="middle" family="微软雅黑" size="13px" weight="400" font-style="" opacity="1" y="16.375" transform="rotate(0)"><tspan id="SvgjsTspan1028" dy="16" x="133"><tspan id="SvgjsTspan1029" style="text-decoration:;">8K</tspan></tspan></text></g></g><g id="SvgjsG1030" transform="translate(333,323)"><path id="SvgjsPath1031" d="M 0 0L 266 0L 266 52L 0 52Z" stroke="rgba(50,50,50,1)" stroke-width="2" fill-opacity="1" fill="#ffffff"></path><g id="SvgjsG1032"><text id="SvgjsText1033" font-family="微软雅黑" text-anchor="middle" font-size="13px" width="246px" fill="#323232" font-weight="400" align="middle" lineHeight="125%" anchor="middle" family="微软雅黑" size="13px" weight="400" font-style="" opacity="1" y="16.375" transform="rotate(0)"><tspan id="SvgjsTspan1034" dy="16" x="133"><tspan id="SvgjsTspan1035" style="text-decoration:;">8K</tspan></tspan></text></g></g><g id="SvgjsG1036" transform="translate(25,175)"><path id="SvgjsPath1037" d="M 0 0L 574 0L 574 49L 0 49Z" stroke="rgba(50,50,50,1)" stroke-width="2" fill-opacity="1" fill="#ffffff"></path><g id="SvgjsG1038"><text id="SvgjsText1039" font-family="微软雅黑" text-anchor="middle" font-size="13px" width="554px" fill="#323232" font-weight="400" align="middle" lineHeight="125%" anchor="middle" family="微软雅黑" size="13px" weight="400" font-style="" opacity="1" y="14.875" transform="rotate(0)"><tspan id="SvgjsTspan1040" dy="16" x="287"><tspan id="SvgjsTspan1041" style="text-decoration:;">16K</tspan></tspan></text></g></g><g id="SvgjsG1042"><path id="SvgjsPath1043" d="M317 238L317 275.5L317 275.5L317 313" stroke="#323232" stroke-width="2" fill="none" marker-end="url(#SvgjsMarker1044)"></path></g><g id="SvgjsG1046"><path id="SvgjsPath1047" d="M315 74L315 111.5L315 111.5L315 149" stroke="#323232" stroke-width="2" fill="none" marker-end="url(#SvgjsMarker1048)"></path></g><g id="SvgjsG1050" transform="translate(252,25)"><path id="SvgjsPath1051" d="M 0 0L 120 0L 120 40L 0 40Z" stroke="none" fill="none"></path><g id="SvgjsG1052"><text id="SvgjsText1053" font-family="微软雅黑" text-anchor="middle" font-size="13px" width="120px" fill="#323232" font-weight="700" align="middle" lineHeight="125%" anchor="middle" family="微软雅黑" size="13px" weight="700" font-style="italic" opacity="1" y="10.375" transform="rotate(0)"><tspan id="SvgjsTspan1054" dy="16" x="60"><tspan id="SvgjsTspan1055" style="text-decoration:underline;">......</tspan></tspan></text></g></g></svg>