<svg id="SvgjsSvg1181" width="441" height="329" xmlns="http://www.w3.org/2000/svg" version="1.1" xmlns:xlink="http://www.w3.org/1999/xlink" xmlns:svgjs="http://svgjs.com/svgjs"><defs id="SvgjsDefs1182"></defs><g id="SvgjsG1183" transform="translate(25,270)"><path id="SvgjsPath1184" d="M 0 4Q 0 0 4 0L 387 0Q 391 0 391 4L 391 30Q 391 34 387 34L 4 34Q 0 34 0 30Z" stroke="rgba(50,50,50,1)" stroke-width="2" fill-opacity="1" fill="#ffffff"></path><g id="SvgjsG1185"><text id="SvgjsText1186" font-family="微软雅黑" text-anchor="middle" font-size="13px" width="371px" fill="#323232" font-weight="400" align="middle" lineHeight="125%" anchor="middle" family="微软雅黑" size="13px" weight="400" font-style="" opacity="1" y="7.375" transform="rotate(0)"><tspan id="SvgjsTspan1187" dy="16" x="195.5"><tspan id="SvgjsTspan1188" style="text-decoration:;">block 物理内存管理器</tspan></tspan></text></g></g><g id="SvgjsG1189" transform="translate(25,220)"><path id="SvgjsPath1190" d="M 0 4Q 0 0 4 0L 387 0Q 391 0 391 4L 391 34Q 391 38 387 38L 4 38Q 0 38 0 34Z" stroke="rgba(50,50,50,1)" stroke-width="2" fill-opacity="1" fill="#ffffff"></path><g id="SvgjsG1191"><text id="SvgjsText1192" font-family="微软雅黑" text-anchor="middle" font-size="13px" width="371px" fill="#323232" font-weight="400" align="middle" lineHeight="125%" anchor="middle" family="微软雅黑" size="13px" weight="400" font-style="" opacity="1" y="9.375" transform="rotate(0)"><tspan id="SvgjsTspan1193" dy="16" x="195.5"><tspan id="SvgjsTspan1194" style="text-decoration:;">buddy 物理内存管理器</tspan></tspan></text></g></g><g id="SvgjsG1195" transform="translate(28,175)"><path id="SvgjsPath1196" d="M 0 4Q 0 0 4 0L 202 0Q 206 0 206 4L 206 26Q 206 30 202 30L 4 30Q 0 30 0 26Z" stroke="rgba(50,50,50,1)" stroke-width="2" fill-opacity="1" fill="#ffffff"></path><g id="SvgjsG1197"><text id="SvgjsText1198" font-family="微软雅黑" text-anchor="middle" font-size="13px" width="186px" fill="#323232" font-weight="400" align="middle" lineHeight="125%" anchor="middle" family="微软雅黑" size="13px" weight="400" font-style="" opacity="1" y="5.375" transform="rotate(0)"><tspan id="SvgjsTspan1199" dy="16" x="103"><tspan id="SvgjsTspan1200" style="text-decoration:;">&lt;3 G 内存 zone</tspan></tspan></text></g></g><g id="SvgjsG1201" transform="translate(243,175)"><path id="SvgjsPath1202" d="M 0 4Q 0 0 4 0L 169 0Q 173 0 173 4L 173 26Q 173 30 169 30L 4 30Q 0 30 0 26Z" stroke="rgba(50,50,50,1)" stroke-width="2" fill-opacity="1" fill="#ffffff"></path><g id="SvgjsG1203"><text id="SvgjsText1204" font-family="微软雅黑" text-anchor="middle" font-size="13px" width="153px" fill="#323232" font-weight="400" align="middle" lineHeight="125%" anchor="middle" family="微软雅黑" size="13px" weight="400" font-style="" opacity="1" y="5.375" transform="rotate(0)"><tspan id="SvgjsTspan1205" dy="16" x="86.5"><tspan id="SvgjsTspan1206" style="text-decoration:;">&gt;= 3G 内存 zone</tspan></tspan></text></g></g><g id="SvgjsG1207" transform="translate(212,129)"><path id="SvgjsPath1208" d="M 0 4Q 0 0 4 0L 200 0Q 204 0 204 4L 204 33Q 204 37 200 37L 4 37Q 0 37 0 33Z" stroke="rgba(50,50,50,1)" stroke-width="2" fill-opacity="1" fill="#ffffff"></path><g id="SvgjsG1209"><text id="SvgjsText1210" font-family="微软雅黑" text-anchor="middle" font-size="13px" width="184px" fill="#323232" font-weight="400" align="middle" lineHeight="125%" anchor="middle" family="微软雅黑" size="13px" weight="400" font-style="" opacity="1" y="8.875" transform="rotate(0)"><tspan id="SvgjsTspan1211" dy="16" x="102"><tspan id="SvgjsTspan1212" style="text-decoration:;">kvm 管理 &gt;= 3G 虚拟内存</tspan></tspan></text></g></g><g id="SvgjsG1213" transform="translate(212,74)"><path id="SvgjsPath1214" d="M 0 4Q 0 0 4 0L 200 0Q 204 0 204 4L 204 40Q 204 44 200 44L 4 44Q 0 44 0 40Z" stroke="rgba(50,50,50,1)" stroke-width="2" fill-opacity="1" fill="#ffffff"></path><g id="SvgjsG1215"><text id="SvgjsText1216" font-family="微软雅黑" text-anchor="middle" font-size="13px" width="184px" fill="#323232" font-weight="400" align="middle" lineHeight="125%" anchor="middle" family="微软雅黑" size="13px" weight="400" font-style="" opacity="1" y="12.375" transform="rotate(0)"><tspan id="SvgjsTspan1217" dy="16" x="102"><tspan id="SvgjsTspan1218" style="text-decoration:;">slab 与 slabcache</tspan></tspan></text></g></g><g id="SvgjsG1219" transform="translate(212,25)"><path id="SvgjsPath1220" d="M 0 4Q 0 0 4 0L 200 0Q 204 0 204 4L 204 36Q 204 40 200 40L 4 40Q 0 40 0 36Z" stroke="rgba(50,50,50,1)" stroke-width="2" fill-opacity="1" fill="#ffffff"></path><g id="SvgjsG1221"><text id="SvgjsText1222" font-family="微软雅黑" text-anchor="middle" font-size="13px" width="184px" fill="#323232" font-weight="400" align="middle" lineHeight="125%" anchor="middle" family="微软雅黑" size="13px" weight="400" font-style="" opacity="1" y="10.375" transform="rotate(0)"><tspan id="SvgjsTspan1223" dy="16" x="102"><tspan id="SvgjsTspan1224" style="text-decoration:;">kmalloc</tspan></tspan></text></g></g><g id="SvgjsG1225" transform="translate(28,104)"><path id="SvgjsPath1226" d="M 0 0L 168 0L 168 62L 0 62Z" stroke="rgba(50,50,50,1)" stroke-width="2" fill-opacity="1" fill="#ffffff"></path><g id="SvgjsG1227"><text id="SvgjsText1228" font-family="微软雅黑" text-anchor="middle" font-size="13px" width="148px" fill="#323232" font-weight="400" align="middle" lineHeight="125%" anchor="middle" family="微软雅黑" size="13px" weight="400" font-style="" opacity="1" y="13.375" transform="rotate(0)"><tspan id="SvgjsTspan1229" dy="16" x="84"><tspan id="SvgjsTspan1230" style="text-decoration:;">vm_area 管理 &lt; 3G 虚拟内</tspan></tspan><tspan id="SvgjsTspan1231" dy="16" x="84"><tspan id="SvgjsTspan1232" style="text-decoration:;">存</tspan></tspan></text></g></g><g id="SvgjsG1233" transform="translate(28,25)"><path id="SvgjsPath1234" d="M 0 0L 168 0L 168 70L 0 70Z" stroke="rgba(50,50,50,1)" stroke-width="2" fill-opacity="1" fill="#ffffff"></path><g id="SvgjsG1235"><text id="SvgjsText1236" font-family="微软雅黑" text-anchor="middle" font-size="13px" width="148px" fill="#323232" font-weight="400" align="middle" lineHeight="125%" anchor="middle" family="微软雅黑" size="13px" weight="400" font-style="" opacity="1" y="25.375" transform="rotate(0)"><tspan id="SvgjsTspan1237" dy="16" x="84"><tspan id="SvgjsTspan1238" style="text-decoration:;">vmalloc</tspan></tspan></text></g></g></svg>